<svg width="16" height="16" xmlns="http://www.w3.org/2000/svg" xmlns:xlink="http://www.w3.org/1999/xlink" xml:space="preserve" overflow="hidden"><defs><clipPath id="clip0"><rect x="569" y="288" width="16" height="16"/></clipPath></defs><g clip-path="url(#clip0)" transform="translate(-569 -288)"><path d="M573.671 288C574.551 288 575.404 288.247 576.139 288.702 578.362 288.465 580.574 289.243 582.159 290.82 583.545 292.202 584.325 294.078 584.326 296.035 584.326 296.38 584.302 296.722 584.254 297.061 584.646 297.757 584.853 298.543 584.854 299.342 584.855 300.579 584.361 301.764 583.484 302.636 582.607 303.511 581.419 304.001 580.18 304 579.34 304 578.522 303.774 577.81 303.356 575.557 303.625 573.305 302.849 571.696 301.249 570.31 299.868 569.531 297.992 569.529 296.035 569.529 295.672 569.556 295.311 569.609 294.954 568.572 293.133 568.883 290.842 570.369 289.364 571.246 288.491 572.433 288 573.67 288ZM574.118 295.01C574.298 295.319 574.548 295.582 574.847 295.779 575.243 296.039 575.664 296.257 576.104 296.432 576.595 296.637 576.977 296.812 577.249 296.955 577.478 297.067 577.686 297.219 577.864 297.403 577.999 297.545 578.074 297.734 578.074 297.931 578.086 298.212 577.961 298.481 577.739 298.654 577.448 298.85 577.099 298.943 576.749 298.918 576.389 298.923 576.032 298.853 575.701 298.712 575.521 298.632 575.344 298.548 575.169 298.459 574.988 298.363 574.787 298.312 574.582 298.309 574.399 298.302 574.219 298.365 574.081 298.485 573.947 298.612 573.876 298.792 573.886 298.976 573.882 299.148 573.934 299.318 574.034 299.458 574.155 299.611 574.311 299.733 574.49 299.812 575.187 300.115 575.943 300.258 576.702 300.231 577.255 300.241 577.805 300.151 578.326 299.966 578.758 299.812 579.134 299.534 579.406 299.165 579.673 298.775 579.808 298.31 579.792 297.838 579.802 297.452 579.705 297.071 579.513 296.737 579.318 296.419 579.054 296.148 578.741 295.945 578.345 295.688 577.925 295.472 577.486 295.3 577.439 295.277 577.391 295.258 577.341 295.242 576.999 295.103 576.661 294.954 576.328 294.795 576.126 294.701 575.942 294.569 575.788 294.408 575.658 294.271 575.586 294.089 575.588 293.9 575.574 293.607 575.722 293.329 575.973 293.177 576.265 293.003 576.601 292.917 576.941 292.93 577.201 292.927 577.461 292.96 577.713 293.026 577.988 293.105 578.255 293.203 578.515 293.319 578.62 293.368 578.735 293.394 578.851 293.395 579.022 293.399 579.187 293.33 579.304 293.205 579.426 293.069 579.491 292.891 579.484 292.709 579.487 292.535 579.426 292.366 579.314 292.233 579.159 292.072 578.969 291.951 578.758 291.879 578.529 291.795 578.291 291.733 578.05 291.696 577.712 291.641 577.37 291.615 577.028 291.618 576.505 291.614 575.985 291.701 575.492 291.876 575.038 292.029 574.633 292.299 574.318 292.66 574.014 293.019 573.854 293.477 573.868 293.947 573.858 294.317 573.944 294.683 574.118 295.01" fill="#6F42C1"/></g></svg>